<svg width="112" height="116" viewBox="0 0 112 116" fill="none" xmlns="http://www.w3.org/2000/svg">
<g filter="url(#filter0_f_4_472)">
<path d="M13.5091 79.3901L30.7087 84.698M81.352 100.327L62.7191 94.5766M62.7191 94.5766L66.2577 83.1102L83.9351 88.5655M62.7191 94.5766L30.7087 84.698M84.0987 88.616L83.9351 88.5655M17.0477 67.9237L34.2473 73.2316M34.2473 73.2316L30.7087 84.698M34.2473 73.2316L83.9351 88.5655M19.7017 59.3239L87.5446 80.2606M22.798 49.2908L90.3459 71.183M83.9351 88.5655L84.8906 88.8604M20.6742 39.2166C20.1965 39.0691 5.74721 85.8903 6.22498 86.0377C6.70274 86.1851 82.7632 109.658 83.1454 109.776C83.6132 109.92 91.8491 79.4745 97.253 63.9284C97.4396 63.3914 97.164 62.8218 96.6208 62.6541C87.7411 59.9138 21.1202 39.3542 20.6742 39.2166Z" stroke="#E92EFB" stroke-width="4" stroke-linecap="round"/>
</g>
<g filter="url(#filter1_f_4_472)">
<path d="M21.6131 26.4246L18.6643 35.9799C18.3385 37.0354 18.9301 38.1551 19.9856 38.4808L98.3393 62.6612C99.3948 62.9869 100.514 62.3953 100.84 61.3399L103.199 53.6956C103.525 52.6402 102.933 51.5205 101.878 51.1948L28.3018 28.4888M21.6131 26.4246L23.951 18.849C24.223 17.9675 25.0626 17.3865 25.9834 17.4424L98.4991 21.8513C99.5765 21.9168 100.408 22.8254 100.377 23.9044L100.224 29.2849C100.193 30.3975 99.2587 31.2702 98.1466 31.2266L28.3018 28.4888M21.6131 26.4246L28.3018 28.4888" stroke="#E92EFB" stroke-width="2" stroke-linecap="round"/>
<path d="M21.1353 26.2772L25.3346 16.0612L35.0019 16.9515L30.2129 29.0786L21.1353 26.2772Z" fill="#E92EFB"/>
<path d="M38.4115 27.9458L44.1915 17.6944L54.9618 18.4018L49.807 28.3229L38.4115 27.9458Z" fill="#E92EFB"/>
<path d="M58.8492 29.5436L64.9595 19.9174L75.7298 20.6248L70.575 30.5459L58.8492 29.5436Z" fill="#E92EFB"/>
<path d="M78.4787 30.3687C79.9886 27.1718 83.1333 20.7118 83.6335 20.4476L94.4038 21.155L89.3965 30.5984L78.4787 30.3687Z" fill="#E92EFB"/>
<path d="M22.9996 38.8876L17.7442 37.2658L21.2828 25.7994L22.9996 38.8876Z" fill="#E92EFB"/>
<path d="M28.255 40.5095L27.9715 27.8636L37.5268 30.8124L38.2881 43.6058L28.255 40.5095Z" fill="#E92EFB"/>
<path d="M46.888 46.2597L45.6489 33.3189L54.7265 36.1203L56.4433 49.2086L46.888 46.2597Z" fill="#E92EFB"/>
<path d="M65.0431 51.8625L62.8485 38.6268L73.3593 41.8705L75.554 55.1062L65.0431 51.8625Z" fill="#E92EFB"/>
<path d="M83.5285 58.0905L81.4814 44.377L91.5145 47.4733L94.0394 61.3342L83.5285 58.0905Z" fill="#E92EFB"/>
</g>
<path d="M13.5091 79.3901L30.7087 84.698M81.352 100.327L62.7191 94.5766M62.7191 94.5766L66.2577 83.1102L83.9351 88.5655M62.7191 94.5766L30.7087 84.698M84.0987 88.616L83.9351 88.5655M17.0477 67.9237L34.2473 73.2316M34.2473 73.2316L30.7087 84.698M34.2473 73.2316L83.9351 88.5655M19.7017 59.3239L87.5446 80.2606M22.798 49.2908L90.3459 71.183M83.9351 88.5655L84.8906 88.8604M20.6742 39.2166C20.1965 39.0691 5.74721 85.8903 6.22498 86.0377C6.70274 86.1851 82.7632 109.658 83.1454 109.776C83.6132 109.92 91.8491 79.4745 97.253 63.9284C97.4396 63.3914 97.164 62.8218 96.6208 62.6541C87.7411 59.9138 21.1202 39.3542 20.6742 39.2166Z" stroke="white" stroke-width="2" stroke-linecap="round"/>
<path d="M98.3393 62.6612L19.9856 38.4808C18.9301 38.1551 18.3385 37.0354 18.6643 35.9799L21.6131 26.4246L23.951 18.849C24.223 17.9675 25.0626 17.3865 25.9834 17.4424L98.4991 21.8513C99.5765 21.9168 100.408 22.8254 100.377 23.9044L100.224 29.2849C100.193 30.3975 99.2587 31.2702 98.1466 31.2266L28.3018 28.4888L101.878 51.1948C102.933 51.5205 103.525 52.6402 103.199 53.6956L100.84 61.3399C100.514 62.3953 99.3948 62.9869 98.3393 62.6612Z" fill="white"/>
<path d="M21.6131 26.4246L18.6643 35.9799C18.3385 37.0354 18.9301 38.1551 19.9856 38.4808L98.3393 62.6612C99.3948 62.9869 100.514 62.3953 100.84 61.3399L103.199 53.6956C103.525 52.6402 102.933 51.5205 101.878 51.1948L28.3018 28.4888M21.6131 26.4246L23.951 18.849C24.223 17.9675 25.0626 17.3865 25.9834 17.4424L98.4991 21.8513C99.5765 21.9168 100.408 22.8254 100.377 23.9044L100.224 29.2849C100.193 30.3975 99.2587 31.2702 98.1466 31.2266L28.3018 28.4888M21.6131 26.4246L28.3018 28.4888" stroke="white" stroke-width="2" stroke-linecap="round"/>
<path d="M21.1353 26.2772L25.3346 16.0612L35.0019 16.9515L30.2129 29.0786L21.1353 26.2772Z" fill="white"/>
<path d="M38.4115 27.9458L44.1915 17.6944L54.9618 18.4018L49.807 28.3229L38.4115 27.9458Z" fill="white"/>
<path d="M58.8492 29.5436L64.9595 19.9174L75.7298 20.6248L70.575 30.5459L58.8492 29.5436Z" fill="white"/>
<path d="M78.4787 30.3687C79.9886 27.1718 83.1333 20.7118 83.6335 20.4476L94.4038 21.155L89.3965 30.5984L78.4787 30.3687Z" fill="white"/>
<path d="M22.9996 38.8876L17.7442 37.2658L21.2828 25.7994L22.9996 38.8876Z" fill="white"/>
<path d="M28.255 40.5095L27.9715 27.8636L37.5268 30.8124L38.2881 43.6058L28.255 40.5095Z" fill="white"/>
<path d="M46.888 46.2597L45.6489 33.3189L54.7265 36.1203L56.4433 49.2086L46.888 46.2597Z" fill="white"/>
<path d="M65.0431 51.8625L62.8485 38.6268L73.3593 41.8705L75.554 55.1062L65.0431 51.8625Z" fill="white"/>
<path d="M83.5285 58.0905L81.4814 44.377L91.5145 47.4733L94.0394 61.3342L83.5285 58.0905Z" fill="white"/>
<defs>
<filter id="filter0_f_4_472" x="0.213379" y="33.2133" width="103.097" height="82.5639" filterUnits="userSpaceOnUse" color-interpolation-filters="sRGB">
<feFlood flood-opacity="0" result="BackgroundImageFix"/>
<feBlend mode="normal" in="SourceGraphic" in2="BackgroundImageFix" result="shape"/>
<feGaussianBlur stdDeviation="2" result="effect1_foregroundBlur_4_472"/>
</filter>
<filter id="filter1_f_4_472" x="13.5745" y="-4" width="102.324" height="71.7509" filterUnits="userSpaceOnUse" color-interpolation-filters="sRGB">
<feFlood flood-opacity="0" result="BackgroundImageFix"/>
<feBlend mode="normal" in="SourceGraphic" in2="BackgroundImageFix" result="shape"/>
<feGaussianBlur stdDeviation="2" result="effect1_foregroundBlur_4_472"/>
</filter>
</defs>
</svg>
