<svg width="94" height="169" viewBox="0 0 94 169" fill="none" xmlns="http://www.w3.org/2000/svg">
<g filter="url(#filter0_f_5_473)">
<path d="M60 10.5V10.5C59.1716 10.5 58.5 9.82843 58.5 9V8C58.5 6.89543 59.3954 6 60.5 6H69.5C70.6046 6 71.5 6.89543 71.5 8V8.5C71.5 9.60457 70.6046 10.5 69.5 10.5V10.5M60 10.5L61.2547 19.2828C61.3954 20.2681 62.2393 21 63.2346 21H68.5M60 10.5H69.5M68.5 21L69.5 10.5M68.5 21H85.5M85.5 21H44.5L49.9024 28.6534C50.2771 29.1843 50.8865 29.5 51.5363 29.5H60.5M85.5 21L80.0976 28.6534C79.7229 29.1843 79.1135 29.5 78.4637 29.5H69.5M69.5 29.5L67.7111 33.0777C67.5723 33.3554 67.5 33.6616 67.5 33.9721V37.7805C67.5 37.9264 67.516 38.0719 67.5476 38.2143L68.4524 42.2857C68.484 42.4281 68.5 42.5736 68.5 42.7195V46.7199C68.5 46.9057 68.4741 47.0906 68.423 47.2693L67.577 50.2307C67.5259 50.4094 67.5 50.5943 67.5 50.7801V54.0279C67.5 54.3384 67.5723 54.6446 67.7111 54.9223L69.2889 58.0777C69.4277 58.3554 69.5 58.6616 69.5 58.9721V62.8944C69.5 63.2893 69.3831 63.6753 69.1641 64.0038L67.8359 65.9962C67.6169 66.3247 67.5 66.7107 67.5 67.1056V70.7199C67.5 70.9057 67.5259 71.0906 67.577 71.2693L68.423 74.2307C68.4741 74.4094 68.5 74.5943 68.5 74.7801V77.1754C68.5 77.3904 68.4653 77.604 68.3974 77.8079L67.7108 79.8675C67.574 80.2781 67.574 80.7219 67.7108 81.1325L69.5 86.5M69.5 29.5H60.5M69.5 86.5L72 92M69.5 86.5H61M72 92V97.5V119M72 92H58M72 119H75C76.1046 119 77 119.895 77 121V124.5M72 119H58M77 124.5V124.5C78.1046 124.5 79 125.395 79 126.5V130.5M77 124.5H53M79 130.5H79.5C80.6046 130.5 81.5 131.395 81.5 132.5V136M79 130.5H50.5M81.5 136V136C82.559 136 83.3756 136.933 83.2357 137.982L82.5 143.5M81.5 136H49M82.5 143.5C87.7671 152.103 87.9647 156.431 82.0763 162.427C81.7112 162.798 81.2084 163 80.6874 163H48M82.5 143.5H47M48 163L46.2182 162.318C46.0732 162.263 45.9223 162.225 45.7685 162.204L40.6878 161.525C40.5629 161.508 40.4398 161.48 40.3202 161.44L33 159L28.3172 157.127C28.1072 157.043 27.9131 156.924 27.7429 156.775L24 153.5L19.6776 150.138C19.5596 150.046 19.4522 149.942 19.3575 149.826L15 144.5L12.1357 140.681C12.0455 140.561 11.9692 140.431 11.9081 140.293L10 136L8.5 131.5L7 125.5C6.66667 123.833 6 120.4 6 120C6 119.6 6 115.833 6 114V106.5V100L6.47357 94.7907C6.4911 94.5979 6.53652 94.4087 6.60841 94.229L8.5 89.5L10 84.5L11.9227 79.6933C11.9741 79.5648 12.0387 79.4419 12.1155 79.3267L14.8901 75.1648C14.9632 75.0552 15.0469 74.9531 15.14 74.86L18.3513 71.6487C18.4502 71.5498 18.5591 71.4616 18.6763 71.3855L21.7949 69.3604C21.9311 69.2719 22.0776 69.2004 22.2311 69.1474L26.6827 67.6096C26.8928 67.537 27.1135 67.5 27.3357 67.5H30.8197C30.9396 67.5 31.0594 67.5108 31.1774 67.5323L36.3019 68.464C36.4336 68.4879 36.5626 68.525 36.6869 68.5748L43.7248 71.3899C43.9073 71.4629 44.078 71.5624 44.2314 71.6851L51.5 77.5L61 86.5M48 163L44.5 158.453M47 143.5L46.3019 138.264C46.142 137.065 47.0748 136 48.2844 136H49M47 143.5C43.6219 149.463 42.5 150.5 44.5 158.453M49 136V132C49 131.172 49.6716 130.5 50.5 130.5V130.5M50.5 130.5V126.5C50.5 125.395 51.3954 124.5 52.5 124.5H53M53 124.5V121C53 119.895 53.8954 119 55 119H58M58 119V97.5V92M58 92L59.3636 89.5M61 86.5L62.3206 81.2178C62.4364 80.7546 62.3826 80.2653 62.1691 79.8383L61.2111 77.9223C61.0723 77.6446 61 77.3384 61 77.0279V74.7801C61 74.5943 61.0259 74.4094 61.077 74.2307L61.923 71.2693C61.9741 71.0906 62 70.9057 62 70.7199V66.9721C62 66.6616 61.9277 66.3554 61.7889 66.0777L60.7111 63.9223C60.5723 63.6446 60.5 63.3384 60.5 63.0279V58.8627C60.5 58.6228 60.5431 58.385 60.6273 58.1604L61.8727 54.8396C61.9569 54.615 62 54.3772 62 54.1373V50.3071C62 50.0908 61.9649 49.876 61.8961 49.6709L61.1039 47.3096C61.0351 47.1046 61 46.8897 61 46.6734V42.8246C61 42.6096 61.0347 42.396 61.1026 42.1921L62.3974 38.3079C62.4653 38.104 62.5 37.8904 62.5 37.6754V33.9721C62.5 33.6616 62.4277 33.3554 62.2889 33.0777L60.5 29.5M61 86.5L59.3636 89.5M44.5 158.453H43.7598C43.5873 158.453 43.4156 158.431 43.2488 158.387L38 157L33.1373 155.055C33.0459 155.018 32.9573 154.975 32.8723 154.926L27.1269 151.574C27.0424 151.525 26.9617 151.469 26.8853 151.408L22.1577 147.626C22.0528 147.542 21.9567 147.448 21.8707 147.345L17.1641 141.697C17.0551 141.566 16.9633 141.422 16.8909 141.268L13 133L10.5626 125.688C10.521 125.563 10.4918 125.434 10.4754 125.303L9.5 117.5V109V101.5L9.98112 96.2077C9.99367 96.0696 10.0206 95.9332 10.0613 95.8006L12 89.5L13.9221 83.7336C13.9739 83.5784 14.0444 83.4302 14.1322 83.2923L17.3601 78.2199C17.453 78.0739 17.5644 77.9406 17.6916 77.8233L21.887 73.9549C21.9622 73.8856 22.0427 73.8221 22.1276 73.765L25.0631 71.7935C25.3495 71.6011 25.6808 71.4861 26.0248 71.4596L31.6214 71.0291C31.8716 71.0099 32.1231 71.0379 32.3629 71.1117L38.2376 72.9193C38.4117 72.9728 38.5777 73.0499 38.7309 73.1485L45.5 77.5L50.5 81.5L55.5 86.5L59.3636 89.5" stroke="#E92EFB" stroke-width="4" stroke-linecap="round"/>
</g>
<path d="M60 9.5V9.5C59.1716 9.5 58.5 8.82843 58.5 8V7C58.5 5.89543 59.3954 5 60.5 5H69.5C70.6046 5 71.5 5.89543 71.5 7V7.5C71.5 8.60457 70.6046 9.5 69.5 9.5V9.5M60 9.5L61.2547 18.2828C61.3954 19.2681 62.2393 20 63.2346 20H68.5M60 9.5H69.5M68.5 20L69.5 9.5M68.5 20H85.5M85.5 20H44.5L49.9024 27.6534C50.2771 28.1843 50.8865 28.5 51.5363 28.5H60.5M85.5 20L80.0976 27.6534C79.7229 28.1843 79.1135 28.5 78.4637 28.5H69.5M69.5 28.5L67.7111 32.0777C67.5723 32.3554 67.5 32.6616 67.5 32.9721V36.7805C67.5 36.9264 67.516 37.0719 67.5476 37.2143L68.4524 41.2857C68.484 41.4281 68.5 41.5736 68.5 41.7195V45.7199C68.5 45.9057 68.4741 46.0906 68.423 46.2693L67.577 49.2307C67.5259 49.4094 67.5 49.5943 67.5 49.7801V53.0279C67.5 53.3384 67.5723 53.6446 67.7111 53.9223L69.2889 57.0777C69.4277 57.3554 69.5 57.6616 69.5 57.9721V61.8944C69.5 62.2893 69.3831 62.6753 69.1641 63.0038L67.8359 64.9962C67.6169 65.3247 67.5 65.7107 67.5 66.1056V69.7199C67.5 69.9057 67.5259 70.0906 67.577 70.2693L68.423 73.2307C68.4741 73.4094 68.5 73.5943 68.5 73.7801V76.1754C68.5 76.3904 68.4653 76.604 68.3974 76.8079L67.7108 78.8675C67.574 79.2781 67.574 79.7219 67.7108 80.1325L69.5 85.5M69.5 28.5H60.5M69.5 85.5L72 91M69.5 85.5H61M72 91V96.5V118M72 91H58M72 118H75C76.1046 118 77 118.895 77 120V123.5M72 118H58M77 123.5V123.5C78.1046 123.5 79 124.395 79 125.5V129.5M77 123.5H53M79 129.5H79.5C80.6046 129.5 81.5 130.395 81.5 131.5V135M79 129.5H50.5M81.5 135V135C82.559 135 83.3756 135.933 83.2357 136.982L82.5 142.5M81.5 135H49M82.5 142.5C87.7671 151.103 87.9647 155.431 82.0763 161.427C81.7112 161.798 81.2084 162 80.6874 162H48M82.5 142.5H47M48 162L46.2182 161.318C46.0732 161.263 45.9223 161.225 45.7685 161.204L40.6878 160.525C40.5629 160.508 40.4398 160.48 40.3202 160.44L33 158L28.3172 156.127C28.1072 156.043 27.9131 155.924 27.7429 155.775L24 152.5L19.6776 149.138C19.5596 149.046 19.4522 148.942 19.3575 148.826L15 143.5L12.1357 139.681C12.0455 139.561 11.9692 139.431 11.9081 139.293L10 135L8.5 130.5L7 124.5C6.66667 122.833 6 119.4 6 119C6 118.6 6 114.833 6 113V105.5V99L6.47357 93.7907C6.4911 93.5979 6.53652 93.4087 6.60841 93.229L8.5 88.5L10 83.5L11.9227 78.6933C11.9741 78.5648 12.0387 78.4419 12.1155 78.3267L14.8901 74.1648C14.9632 74.0552 15.0469 73.9531 15.14 73.86L18.3513 70.6487C18.4502 70.5498 18.5591 70.4616 18.6763 70.3855L21.7949 68.3604C21.9311 68.2719 22.0776 68.2004 22.2311 68.1474L26.6827 66.6096C26.8928 66.537 27.1135 66.5 27.3357 66.5H30.8197C30.9396 66.5 31.0594 66.5108 31.1774 66.5323L36.3019 67.464C36.4336 67.4879 36.5626 67.525 36.6869 67.5748L43.7248 70.3899C43.9073 70.4629 44.078 70.5624 44.2314 70.6851L51.5 76.5L61 85.5M48 162L44.5 157.453M47 142.5L46.3019 137.264C46.142 136.065 47.0748 135 48.2844 135H49M47 142.5C43.6219 148.463 42.5 149.5 44.5 157.453M49 135V131C49 130.172 49.6716 129.5 50.5 129.5V129.5M50.5 129.5V125.5C50.5 124.395 51.3954 123.5 52.5 123.5H53M53 123.5V120C53 118.895 53.8954 118 55 118H58M58 118V96.5V91M58 91L59.3636 88.5M61 85.5L62.3206 80.2178C62.4364 79.7546 62.3826 79.2653 62.1691 78.8383L61.2111 76.9223C61.0723 76.6446 61 76.3384 61 76.0279V73.7801C61 73.5943 61.0259 73.4094 61.077 73.2307L61.923 70.2693C61.9741 70.0906 62 69.9057 62 69.7199V65.9721C62 65.6616 61.9277 65.3554 61.7889 65.0777L60.7111 62.9223C60.5723 62.6446 60.5 62.3384 60.5 62.0279V57.8627C60.5 57.6228 60.5431 57.385 60.6273 57.1604L61.8727 53.8396C61.9569 53.615 62 53.3772 62 53.1373V49.3071C62 49.0908 61.9649 48.876 61.8961 48.6709L61.1039 46.3096C61.0351 46.1046 61 45.8897 61 45.6734V41.8246C61 41.6096 61.0347 41.396 61.1026 41.1921L62.3974 37.3079C62.4653 37.104 62.5 36.8904 62.5 36.6754V32.9721C62.5 32.6616 62.4277 32.3554 62.2889 32.0777L60.5 28.5M61 85.5L59.3636 88.5M44.5 157.453H43.7598C43.5873 157.453 43.4156 157.431 43.2488 157.387L38 156L33.1373 154.055C33.0459 154.018 32.9573 153.975 32.8723 153.926L27.1269 150.574C27.0424 150.525 26.9617 150.469 26.8853 150.408L22.1577 146.626C22.0528 146.542 21.9567 146.448 21.8707 146.345L17.1641 140.697C17.0551 140.566 16.9633 140.422 16.8909 140.268L13 132L10.5626 124.688C10.521 124.563 10.4918 124.434 10.4754 124.303L9.5 116.5V108V100.5L9.98112 95.2077C9.99367 95.0696 10.0206 94.9332 10.0613 94.8006L12 88.5L13.9221 82.7336C13.9739 82.5784 14.0444 82.4302 14.1322 82.2923L17.3601 77.2199C17.453 77.0739 17.5644 76.9406 17.6916 76.8233L21.887 72.9549C21.9622 72.8856 22.0427 72.8221 22.1276 72.765L25.0833 70.7798C25.3569 70.5961 25.6716 70.4828 25.9994 70.4501L30.1536 70.0346C30.3828 70.0117 30.6142 70.0286 30.8377 70.0844L38.1805 71.9201C38.3921 71.973 38.5936 72.0601 38.777 72.1781L45.5 76.5L50.5 80.5L55.5 85.5L59.3636 88.5" stroke="white" stroke-width="2" stroke-linecap="round"/>
<defs>
<filter id="filter0_f_5_473" x="0" y="0" width="93.3598" height="169" filterUnits="userSpaceOnUse" color-interpolation-filters="sRGB">
<feFlood flood-opacity="0" result="BackgroundImageFix"/>
<feBlend mode="normal" in="SourceGraphic" in2="BackgroundImageFix" result="shape"/>
<feGaussianBlur stdDeviation="2" result="effect1_foregroundBlur_5_473"/>
</filter>
</defs>
</svg>
