<svg width="1440" height="16" viewBox="0 0 1440 16" fill="none" xmlns="http://www.w3.org/2000/svg">
<rect x="-9" y="2" width="1486" height="12" fill="#A2A3F5" stroke="#A2A3F5" stroke-width="4"/>
<rect x="16" y="3" width="10" height="10" fill="#160E51"/>
<rect x="-4" y="3" width="10" height="10" fill="#160E51"/>
<rect x="36" y="3" width="10" height="10" fill="#160E51"/>
<rect x="56" y="3" width="10" height="10" fill="#160E51"/>
<rect x="76" y="3" width="10" height="10" fill="#160E51"/>
<rect x="96" y="3" width="10" height="10" fill="#160E51"/>
<rect x="116" y="3" width="10" height="10" fill="#160E51"/>
<rect x="136" y="3" width="10" height="10" fill="#160E51"/>
<rect x="156" y="3" width="10" height="10" fill="#160E51"/>
<rect x="176" y="3" width="10" height="10" fill="#160E51"/>
<rect x="196" y="3" width="10" height="10" fill="#160E51"/>
<rect x="216" y="3" width="10" height="10" fill="#160E51"/>
<rect x="316" y="3" width="10" height="10" fill="#160E51"/>
<rect x="416" y="3" width="10" height="10" fill="#160E51"/>
<rect x="516" y="3" width="10" height="10" fill="#160E51"/>
<rect x="616" y="3" width="10" height="10" fill="#160E51"/>
<rect x="716" y="3" width="10" height="10" fill="#160E51"/>
<rect x="816" y="3" width="10" height="10" fill="#160E51"/>
<rect x="916" y="3" width="10" height="10" fill="#160E51"/>
<rect x="1016" y="3" width="10" height="10" fill="#160E51"/>
<rect x="1116" y="3" width="10" height="10" fill="#160E51"/>
<rect x="1216" y="3" width="10" height="10" fill="#160E51"/>
<rect x="1316" y="3" width="10" height="10" fill="#160E51"/>
<rect x="236" y="3" width="10" height="10" fill="#160E51"/>
<rect x="336" y="3" width="10" height="10" fill="#160E51"/>
<rect x="436" y="3" width="10" height="10" fill="#160E51"/>
<rect x="536" y="3" width="10" height="10" fill="#160E51"/>
<rect x="636" y="3" width="10" height="10" fill="#160E51"/>
<rect x="736" y="3" width="10" height="10" fill="#160E51"/>
<rect x="836" y="3" width="10" height="10" fill="#160E51"/>
<rect x="936" y="3" width="10" height="10" fill="#160E51"/>
<rect x="1036" y="3" width="10" height="10" fill="#160E51"/>
<rect x="1136" y="3" width="10" height="10" fill="#160E51"/>
<rect x="1236" y="3" width="10" height="10" fill="#160E51"/>
<rect x="1336" y="3" width="10" height="10" fill="#160E51"/>
<rect x="256" y="3" width="10" height="10" fill="#160E51"/>
<rect x="356" y="3" width="10" height="10" fill="#160E51"/>
<rect x="456" y="3" width="10" height="10" fill="#160E51"/>
<rect x="556" y="3" width="10" height="10" fill="#160E51"/>
<rect x="656" y="3" width="10" height="10" fill="#160E51"/>
<rect x="756" y="3" width="10" height="10" fill="#160E51"/>
<rect x="856" y="3" width="10" height="10" fill="#160E51"/>
<rect x="956" y="3" width="10" height="10" fill="#160E51"/>
<rect x="1056" y="3" width="10" height="10" fill="#160E51"/>
<rect x="1156" y="3" width="10" height="10" fill="#160E51"/>
<rect x="1256" y="3" width="10" height="10" fill="#160E51"/>
<rect x="1356" y="3" width="10" height="10" fill="#160E51"/>
<rect x="276" y="3" width="10" height="10" fill="#160E51"/>
<rect x="376" y="3" width="10" height="10" fill="#160E51"/>
<rect x="476" y="3" width="10" height="10" fill="#160E51"/>
<rect x="576" y="3" width="10" height="10" fill="#160E51"/>
<rect x="676" y="3" width="10" height="10" fill="#160E51"/>
<rect x="776" y="3" width="10" height="10" fill="#160E51"/>
<rect x="876" y="3" width="10" height="10" fill="#160E51"/>
<rect x="976" y="3" width="10" height="10" fill="#160E51"/>
<rect x="1076" y="3" width="10" height="10" fill="#160E51"/>
<rect x="1176" y="3" width="10" height="10" fill="#160E51"/>
<rect x="1276" y="3" width="10" height="10" fill="#160E51"/>
<rect x="1376" y="3" width="10" height="10" fill="#160E51"/>
<rect x="296" y="3" width="10" height="10" fill="#160E51"/>
<rect x="396" y="3" width="10" height="10" fill="#160E51"/>
<rect x="496" y="3" width="10" height="10" fill="#160E51"/>
<rect x="596" y="3" width="10" height="10" fill="#160E51"/>
<rect x="696" y="3" width="10" height="10" fill="#160E51"/>
<rect x="796" y="3" width="10" height="10" fill="#160E51"/>
<rect x="896" y="3" width="10" height="10" fill="#160E51"/>
<rect x="996" y="3" width="10" height="10" fill="#160E51"/>
<rect x="1096" y="3" width="10" height="10" fill="#160E51"/>
<rect x="1196" y="3" width="10" height="10" fill="#160E51"/>
<rect x="1296" y="3" width="10" height="10" fill="#160E51"/>
<rect x="1396" y="3" width="10" height="10" fill="#160E51"/>
<rect x="1416" y="3" width="10" height="10" fill="#160E51"/>
<rect x="1436" y="3" width="10" height="10" fill="#160E51"/>
</svg>
